<?xml version="1.0" standalone="no"?>
<!DOCTYPE svg PUBLIC "-//W3C//DTD SVG 20010904//EN"
 "http://www.w3.org/TR/2001/REC-SVG-20010904/DTD/svg10.dtd">
<svg version="1.0" xmlns="http://www.w3.org/2000/svg"
 width="549.000000pt" height="455.000000pt" viewBox="0 0 549.000000 455.000000"
 preserveAspectRatio="xMidYMid meet">

<g transform="translate(0.000000,455.000000) scale(0.100000,-0.100000)"
fill="#000000" stroke="none">
<path d="M1280 3533 c-52 -8 -80 -25 -80 -47 0 -11 9 -84 20 -161 10 -77 17
-141 15 -144 -5 -4 -151 -19 -201 -20 l-32 -1 -4 121 c-4 113 -6 123 -27 141
-19 15 -33 17 -75 12 -90 -11 -92 -17 -77 -202 14 -189 17 -201 45 -208 13 -3
105 2 205 11 101 9 184 15 185 13 2 -2 13 -77 25 -168 25 -195 27 -295 7 -307
-24 -14 -75 -107 -82 -151 -4 -23 -10 -42 -15 -42 -5 0 -9 2 -9 4 0 2 -4 26
-10 55 -9 47 -5 89 16 171 l6 25 -17 -24 c-24 -32 -65 -149 -65 -188 l0 -32
-35 15 c-19 7 -48 14 -65 14 -31 0 -130 -37 -130 -49 0 -3 23 -4 52 -2 48 3
122 -13 142 -31 6 -4 -12 -8 -40 -8 -30 0 -62 -8 -84 -20 -19 -10 -42 -22 -51
-25 -8 -4 -23 -19 -33 -35 l-17 -29 -92 30 c-50 16 -139 45 -197 64 -101 34
-111 35 -256 35 -83 0 -185 -3 -227 -6 l-77 -7 0 -1168 0 -1169 2745 0 2745 0
0 1429 0 1430 -44 31 -43 31 -7 106 c-3 58 -6 126 -6 150 l0 43 50 0 50 0 0
81 c0 60 -3 80 -12 76 -9 -3 -12 -21 -10 -55 l4 -52 -46 0 -45 0 -3 63 -3 62
-37 3 -38 3 0 -130 0 -131 -29 0 c-28 0 -30 2 -33 48 -3 42 -6 47 -29 50 -39
5 -50 -18 -47 -90 l3 -63 68 -3 67 -3 0 -32 c0 -18 3 -42 6 -55 6 -22 6 -22
-22 -8 -62 32 -207 86 -232 87 -15 0 -36 4 -47 8 -33 14 47 32 88 20 45 -13
46 -12 12 11 -17 11 -47 20 -70 20 -47 0 -36 17 15 23 31 3 30 4 -10 5 -41 2
-47 5 -57 32 -6 17 -16 30 -22 30 -8 0 -9 -6 -1 -19 18 -35 11 -44 -15 -17
-13 14 -29 26 -36 26 -8 0 -6 -7 4 -18 26 -29 21 -49 -5 -24 -26 24 -70 42
-101 42 -16 0 -11 -5 19 -21 23 -11 49 -28 59 -39 16 -18 15 -18 -26 -4 -23 8
-49 13 -58 11 -11 -3 -9 -5 6 -6 12 0 25 -6 29 -13 5 -8 2 -9 -12 -4 -10 5
-66 10 -124 13 -177 9 -336 -36 -430 -121 -22 -20 -40 -39 -40 -43 0 -3 -10
-20 -23 -37 -48 -65 -129 -219 -141 -269 -8 -34 -89 -170 -104 -175 -11 -3
-29 85 -19 95 3 3 21 8 39 12 33 7 33 8 33 62 -1 82 -11 111 -38 107 -20 -3
-22 -8 -19 -61 2 -51 0 -58 -15 -55 -15 3 -19 15 -21 64 l-3 61 50 7 c66 9 72
21 57 119 -14 86 -35 119 -64 101 -17 -12 -19 -32 -11 -109 4 -37 2 -40 -21
-40 -21 0 -25 6 -32 45 -14 87 -16 90 -48 90 -45 0 -49 -19 -29 -148 11 -64
19 -120 19 -124 0 -5 -16 -8 -35 -8 l-34 0 -3 61 c-3 69 -22 94 -55 73 -15
-10 -17 -24 -15 -84 2 -39 7 -83 13 -97 9 -25 12 -26 74 -20 36 2 65 4 65 3 0
-1 5 -29 10 -62 6 -32 13 -74 16 -91 l5 -33 -50 0 c-27 0 -61 -4 -75 -10 -16
-6 -26 -6 -26 0 0 17 44 40 78 40 21 0 31 4 26 11 -7 11 -65 8 -99 -6 -16 -6
-13 -1 9 23 33 36 29 39 -15 16 -29 -14 -31 -14 -49 8 -22 28 -36 19 -20 -12
12 -22 12 -22 -11 -6 -13 9 -32 16 -42 16 -15 0 -13 -4 10 -25 15 -13 23 -25
16 -25 -6 0 -15 5 -18 10 -8 13 -85 13 -105 0 -11 -7 -4 -10 27 -10 23 0 48
-3 57 -6 25 -10 19 -25 -7 -19 -13 4 -39 0 -58 -9 l-34 -14 45 -1 c40 -1 82
-15 70 -23 -3 -2 -51 -26 -108 -54 l-103 -51 -47 15 c-26 9 -69 25 -97 37 -27
12 -86 35 -130 50 -44 15 -100 37 -125 50 -25 12 -59 25 -76 28 -17 3 -61 20
-98 36 -37 17 -73 31 -82 31 -8 0 -39 11 -67 24 -29 13 -70 29 -92 36 -22 7
-57 19 -78 26 -58 21 -80 19 -362 -38 -55 -11 -134 -27 -175 -35 -41 -8 -145
-30 -230 -49 -85 -19 -165 -34 -177 -34 -39 0 -29 42 17 79 53 42 51 56 -4 25
l-44 -24 -6 47 c-4 27 -9 64 -12 84 l-5 35 118 22 c65 12 132 22 149 22 35 0
74 35 74 66 -1 54 -59 296 -75 314 -36 40 -165 10 -165 -38 0 -11 9 -61 20
-113 11 -52 20 -99 20 -105 0 -9 -150 -47 -157 -41 -1 2 -21 177 -48 432 -19
175 -29 221 -51 229 -17 6 -73 6 -114 -1z m26 -1113 l-16 -35 6 55 c7 72 17
95 22 50 1 -20 -4 -51 -12 -70z m-226 -160 c12 -8 11 -10 -8 -10 -12 0 -48
-11 -80 -24 -44 -18 -66 -22 -97 -17 l-40 7 25 16 c14 8 34 20 45 26 25 14
135 15 155 2z m31 -111 c-16 -6 -28 -6 -35 1 -7 7 1 10 25 9 32 0 33 -1 10
-10z"/>
</g>
</svg>
